{
    "asset" : {
        "generator" : "Khronos glTF Blender I/O v1.1.46",
        "version" : "2.0"
    },
    "scene" : 0,
    "scenes" : [
        {
            "extras" : {
                "glTF2ExportSettings" : {
                    "export_apply" : 1,
                    "export_extras" : 1,
                    "export_format" : "GLTF_EMBEDDED",
                    "export_selected" : 0
                }
            },
            "name" : "Scene",
            "nodes" : [
                0,
                1,
                2
            ]
        }
    ],
    "nodes" : [
        {
            "mesh" : 0,
            "name" : "container",
            "scale" : [
                6,
                20,
                6
            ]
        },
        {
            "mesh" : 1,
            "name" : "front-door",
            "scale" : [
                1,
                19.389999389648438,
                5.590000152587891
            ],
            "translation" : [
                5.900000095367432,
                0,
                -5.590000152587891
            ]
        },
        {
            "mesh" : 2,
            "name" : "back-door",
            "scale" : [
                1,
                19.389999389648438,
                5.590000152587891
            ],
            "translation" : [
                -5.900000095367432,
                0,
                5.590000152587891
            ]
        }
    ],
    "materials" : [
        {
            "doubleSided" : true,
            "emissiveFactor" : [
                0,
                0,
                0
            ],
            "extras" : {
                "transparencyMode" : 2
            },
            "name" : "Material.001",
            "pbrMetallicRoughness" : {
                "baseColorFactor" : [
                    0.17714667320251465,
                    0.8320999145507812,
                    0.07861745357513428,
                    1
                ],
                "metallicFactor" : 0.800000011920929,
                "roughnessFactor" : 0.278212308883667
            }
        }
    ],
    "meshes" : [
        {
            "name" : "Cube.002",
            "primitives" : [
                {
                    "attributes" : {
                        "POSITION" : 0,
                        "NORMAL" : 1,
                        "TEXCOORD_0" : 2
                    },
                    "indices" : 3,
                    "material" : 0
                }
            ]
        },
        {
            "name" : "Plane.003",
            "primitives" : [
                {
                    "attributes" : {
                        "POSITION" : 4,
                        "NORMAL" : 5,
                        "TEXCOORD_0" : 6
                    },
                    "indices" : 7,
                    "material" : 0
                }
            ]
        },
        {
            "name" : "Plane.001",
            "primitives" : [
                {
                    "attributes" : {
                        "POSITION" : 8,
                        "NORMAL" : 9,
                        "TEXCOORD_0" : 10
                    },
                    "indices" : 7,
                    "material" : 0
                }
            ]
        }
    ],
    "accessors" : [
        {
            "bufferView" : 0,
            "componentType" : 5126,
            "count" : 563,
            "max" : [
                1.0000001192092896,
                1,
                1
            ],
            "min" : [
                -1,
                -1,
                -1
            ],
            "type" : "VEC3"
        },
        {
            "bufferView" : 1,
            "componentType" : 5126,
            "count" : 563,
            "type" : "VEC3"
        },
        {
            "bufferView" : 2,
            "componentType" : 5126,
            "count" : 563,
            "type" : "VEC2"
        },
        {
            "bufferView" : 3,
            "componentType" : 5123,
            "count" : 888,
            "type" : "SCALAR"
        },
        {
            "bufferView" : 4,
            "componentType" : 5126,
            "count" : 45268,
            "max" : [
                0.419010728597641,
                1,
                2
            ],
            "min" : [
                -4.371138828673793e-08,
                -1,
                0
            ],
            "type" : "VEC3"
        },
        {
            "bufferView" : 5,
            "componentType" : 5126,
            "count" : 45268,
            "type" : "VEC3"
        },
        {
            "bufferView" : 6,
            "componentType" : 5126,
            "count" : 45268,
            "type" : "VEC2"
        },
        {
            "bufferView" : 7,
            "componentType" : 5123,
            "count" : 67974,
            "type" : "SCALAR"
        },
        {
            "bufferView" : 8,
            "componentType" : 5126,
            "count" : 45268,
            "max" : [
                5.324047265276022e-07,
                1.0000001192092896,
                0
            ],
            "min" : [
                -0.4190111756324768,
                -1.0000001192092896,
                -2
            ],
            "type" : "VEC3"
        },
        {
            "bufferView" : 9,
            "componentType" : 5126,
            "count" : 45268,
            "type" : "VEC3"
        },
        {
            "bufferView" : 10,
            "componentType" : 5126,
            "count" : 45268,
            "type" : "VEC2"
        }
    ],
    "bufferViews" : [
        {
            "buffer" : 0,
            "byteLength" : 6756,
            "byteOffset" : 0
        },
        {
            "buffer" : 0,
            "byteLength" : 6756,
            "byteOffset" : 6756
        },
        {
            "buffer" : 0,
            "byteLength" : 4504,
            "byteOffset" : 13512
        },
        {
            "buffer" : 0,
            "byteLength" : 1776,
            "byteOffset" : 18016
        },
        {
            "buffer" : 0,
            "byteLength" : 543216,
            "byteOffset" : 19792
        },
        {
            "buffer" : 0,
            "byteLength" : 543216,
            "byteOffset" : 563008
        },
        {
            "buffer" : 0,
            "byteLength" : 362144,
            "byteOffset" : 1106224
        },
        {
            "buffer" : 0,
            "byteLength" : 135948,
            "byteOffset" : 1468368
        },
        {
            "buffer" : 0,
            "byteLength" : 543216,
            "byteOffset" : 1604316
        },
        {
            "buffer" : 0,
            "byteLength" : 543216,
            "byteOffset" : 2147532
        },
        {
            "buffer" : 0,
            "byteLength" : 362144,
            "byteOffset" : 2690748
        }
    ],
    "buffers" : [
        {
            "byteLength" : 3052892,
            "uri" : "data:application/octet-stream;base64,"
        }
    ]
}
